<?xml version="1.0" encoding="UTF-8" standalone="no"?>
<svg
   xmlns:dc="http://purl.org/dc/elements/1.1/"
   xmlns:cc="http://creativecommons.org/ns#"
   xmlns:rdf="http://www.w3.org/1999/02/22-rdf-syntax-ns#"
   xmlns:svg="http://www.w3.org/2000/svg"
   xmlns="http://www.w3.org/2000/svg"
   viewBox="0 0 32 32"
   height="32"
   width="32"
   xml:space="preserve"
   id="svg2"
   version="1.1"><metadata
     id="metadata8"><rdf:RDF><cc:Work
         rdf:about=""><dc:format>image/svg+xml</dc:format><dc:type
           rdf:resource="http://purl.org/dc/dcmitype/StillImage" /></cc:Work></rdf:RDF></metadata><defs
     id="defs6"><linearGradient
       id="linearGradient22"
       spreadMethod="pad"
       gradientTransform="scale(0.75)"
       gradientUnits="userSpaceOnUse"
       y2="14.7794"
       x2="37.926998"
       y1="14.7024"
       x1="2.6296401"><stop
         id="stop18"
         offset="0"
         style="stop-opacity:1;stop-color:#105bfb" /><stop
         id="stop20"
         offset="1"
         style="stop-opacity:1;stop-color:#5061ff" /></linearGradient><linearGradient
       id="linearGradient34"
       spreadMethod="pad"
       gradientTransform="scale(0.75)"
       gradientUnits="userSpaceOnUse"
       y2="15.4395"
       x2="24.6938"
       y1="15.4086"
       x1="10.5749"><stop
         id="stop30"
         offset="0"
         style="stop-opacity:1;stop-color:#105bfb" /><stop
         id="stop32"
         offset="1"
         style="stop-opacity:1;stop-color:#5061ff" /></linearGradient><linearGradient
       id="linearGradient46"
       spreadMethod="pad"
       gradientTransform="scale(0.75)"
       gradientUnits="userSpaceOnUse"
       y2="9.1940804"
       x2="23.025101"
       y1="9.1940804"
       x1="23.009199"><stop
         id="stop42"
         offset="0"
         style="stop-opacity:1;stop-color:#105bfb" /><stop
         id="stop44"
         offset="1"
         style="stop-opacity:1;stop-color:#5061ff" /></linearGradient></defs><g
     transform="scale(1.3333333)"
     id="g10"><g
       id="g12"><g
         id="g14"><g
           id="g16"><path
             id="path24"
             style="fill:none;stroke:url(#linearGradient22);stroke-width:1.31481802;stroke-linecap:round;stroke-linejoin:round;stroke-miterlimit:4;stroke-dasharray:none;stroke-opacity:1"
             d="M 16.766,1.461 H 6.902 c -3.086,0 -5.586,2.504 -5.586,5.59 v 9.859 c 0,3.086 2.5,5.59 5.586,5.59 h 9.864 c 3.086,0 5.586,-2.504 5.586,-5.59 V 7.051 c 0,-3.086 -2.5,-5.59 -5.586,-5.59 z" /></g></g><g
         id="g26"><g
           id="g28"><path
             id="path36"
             style="fill:none;stroke:url(#linearGradient34);stroke-width:1.31481802;stroke-linecap:round;stroke-linejoin:round;stroke-miterlimit:4;stroke-dasharray:none;stroke-opacity:1"
             d="M 9.758,7.852 10.059,8.438 9.758,7.852 C 8.898,8.301 8.199,9.004 7.766,9.867 7.328,10.734 7.18,11.715 7.332,12.668 c 0.152,0.957 0.606,1.84 1.289,2.523 l 0.457,-0.453 -0.457,0.453 c 0.684,0.684 1.567,1.137 2.524,1.289 0.957,0.157 1.933,0.004 2.8,-0.433 0.864,-0.434 1.571,-1.129 2.016,-1.988 0.445,-0.86 0.609,-1.84 0.465,-2.797 C 16.281,10.285 15.828,9.383 15.129,8.684 14.43,7.984 13.527,7.531 12.551,7.387 11.594,7.242 10.617,7.406 9.758,7.852 Z" /></g></g><g
         id="g38"><g
           id="g40"><path
             id="path48"
             style="fill:none;stroke:url(#linearGradient46);stroke-width:1.31481802;stroke-linecap:round;stroke-linejoin:round;stroke-miterlimit:4;stroke-dasharray:none;stroke-opacity:1"
             d="m 17.258,6.559 h 0.008" /></g></g></g></g></svg>