<?xml version="1.0" encoding="UTF-8"?>
<svg xmlns="http://www.w3.org/2000/svg" xmlns:xlink="http://www.w3.org/1999/xlink" width="29.80249pt" height="29.80249pt" viewBox="0 0 29.80249 29.80249" version="1.1">
<defs>
<clipPath id="clip1">
  <path d="M 0 0 L 29.800781 0 L 29.800781 29.800781 L 0 29.800781 Z M 0 0 "/>
</clipPath>
<clipPath id="clip2">
  <path d="M 2.628906 22.554688 L 3.050781 22.675781 L 3.101563 22.488281 L 3 22.324219 Z M 1.015625 28.382813 L 0.59375 28.265625 L 0.589844 28.269531 Z M 1.164063 28.929688 L 0.859375 29.246094 Z M 1.714844 29.0625 L 1.84375 29.480469 Z M 7.445313 27.296875 L 7.671875 26.921875 L 7.503906 26.820313 L 7.320313 26.878906 Z M 14.902344 29.363281 L 14.902344 28.925781 Z M 14.902344 28.25 L 14.902344 27.8125 Z M 7.820313 26.21875 L 8.050781 25.847656 Z M 7.359375 26.160156 L 7.488281 26.578125 Z M 2.355469 27.703125 L 1.933594 27.585938 L 1.722656 28.355469 L 2.484375 28.121094 Z M 3.765625 22.621094 L 3.34375 22.5 L 3.34375 22.503906 Z M 3.699219 22.167969 L 4.066406 21.929688 L 4.066406 21.925781 Z M 1.550781 14.902344 L 1.988281 14.902344 Z M 14.902344 0 C 6.683594 0 0 6.683594 0 14.902344 L 0.875 14.902344 C 0.875 7.167969 7.167969 0.875 14.902344 0.875 Z M 0 14.902344 C 0 17.703125 0.777344 20.425781 2.257813 22.789063 L 3 22.324219 C 1.609375 20.101563 0.875 17.539063 0.875 14.902344 Z M 2.207031 22.4375 C 1.921875 23.4375 1.519531 24.886719 1.1875 26.089844 C 1.023438 26.691406 0.875 27.230469 0.769531 27.621094 C 0.714844 27.816406 0.671875 27.976563 0.640625 28.089844 C 0.625 28.144531 0.613281 28.1875 0.605469 28.21875 C 0.601563 28.234375 0.597656 28.246094 0.59375 28.253906 C 0.59375 28.261719 0.59375 28.265625 0.59375 28.265625 L 1.4375 28.503906 C 1.449219 28.449219 2.476563 24.683594 3.050781 22.675781 Z M 0.589844 28.269531 C 0.542969 28.441406 0.542969 28.621094 0.589844 28.792969 L 1.4375 28.5625 C 1.429688 28.539063 1.429688 28.519531 1.4375 28.5 Z M 0.589844 28.792969 C 0.640625 28.964844 0.730469 29.121094 0.859375 29.246094 L 1.46875 28.613281 C 1.453125 28.597656 1.441406 28.582031 1.4375 28.5625 Z M 0.859375 29.246094 C 1.121094 29.496094 1.5 29.585938 1.84375 29.480469 L 1.585938 28.640625 C 1.546875 28.652344 1.5 28.644531 1.46875 28.613281 Z M 1.84375 29.480469 L 7.574219 27.714844 L 7.320313 26.878906 L 1.585938 28.640625 Z M 7.222656 27.671875 C 9.539063 29.070313 12.195313 29.804688 14.902344 29.800781 L 14.902344 28.925781 C 12.355469 28.929688 9.855469 28.234375 7.671875 26.921875 Z M 14.902344 29.800781 C 23.117188 29.800781 29.800781 23.117188 29.800781 14.902344 L 28.925781 14.902344 C 28.925781 22.632813 22.632813 28.925781 14.902344 28.925781 Z M 29.800781 14.902344 C 29.800781 6.683594 23.117188 0 14.902344 0 L 14.902344 0.875 C 22.632813 0.875 28.925781 7.167969 28.925781 14.902344 Z M 14.902344 27.8125 C 12.480469 27.816406 10.105469 27.136719 8.050781 25.847656 L 7.585938 26.59375 C 9.777344 27.964844 12.316406 28.691406 14.902344 28.691406 Z M 8.050781 25.847656 C 7.929688 25.773438 7.796875 25.726563 7.652344 25.707031 L 7.539063 26.574219 C 7.554688 26.578125 7.574219 26.582031 7.585938 26.59375 Z M 7.652344 25.707031 C 7.511719 25.6875 7.367188 25.699219 7.230469 25.742188 L 7.488281 26.578125 C 7.503906 26.574219 7.523438 26.574219 7.539063 26.574219 Z M 7.230469 25.742188 L 2.226563 27.28125 L 2.484375 28.121094 L 7.488281 26.578125 Z M 2.777344 27.816406 C 3.238281 26.121094 3.710938 24.429688 4.1875 22.742188 L 3.34375 22.503906 C 2.867188 24.195313 2.394531 25.890625 1.933594 27.585938 Z M 4.1875 22.742188 C 4.265625 22.46875 4.222656 22.167969 4.066406 21.929688 L 3.332031 22.402344 C 3.347656 22.433594 3.355469 22.46875 3.34375 22.5 Z M 4.066406 21.925781 C 2.707031 19.835938 1.984375 17.394531 1.988281 14.902344 L 1.113281 14.902344 C 1.109375 17.5625 1.878906 20.171875 3.332031 22.40625 Z M 1.988281 14.902344 C 1.988281 7.78125 7.78125 1.988281 14.902344 1.988281 L 14.902344 1.113281 C 7.296875 1.113281 1.113281 7.296875 1.113281 14.902344 Z M 14.902344 1.988281 C 22.019531 1.988281 27.8125 7.78125 27.8125 14.902344 L 28.691406 14.902344 C 28.691406 7.296875 22.503906 1.113281 14.902344 1.113281 Z M 27.8125 14.902344 C 27.8125 22.019531 22.019531 27.8125 14.902344 27.8125 L 14.902344 28.691406 C 22.503906 28.691406 28.691406 22.503906 28.691406 14.902344 Z M 27.8125 14.902344 "/>
</clipPath>
<linearGradient id="linear0" gradientUnits="userSpaceOnUse" x1="-0.0120465" y1="0" x2="0.757195" y2="0" gradientTransform="matrix(38.827038,0.084757,0.084757,-38.827038,0.38204,39.26527)">
<stop offset="0" style="stop-color:rgb(6.274414%,35.68573%,98.431396%);stop-opacity:1;"/>
<stop offset="0.03125" style="stop-color:rgb(6.42395%,35.699463%,98.440552%);stop-opacity:1;"/>
<stop offset="0.046875" style="stop-color:rgb(6.726074%,35.726929%,98.458862%);stop-opacity:1;"/>
<stop offset="0.0625" style="stop-color:rgb(7.026672%,35.75592%,98.477173%);stop-opacity:1;"/>
<stop offset="0.078125" style="stop-color:rgb(7.328796%,35.783386%,98.497009%);stop-opacity:1;"/>
<stop offset="0.09375" style="stop-color:rgb(7.63092%,35.812378%,98.51532%);stop-opacity:1;"/>
<stop offset="0.109375" style="stop-color:rgb(7.931519%,35.84137%,98.53363%);stop-opacity:1;"/>
<stop offset="0.125" style="stop-color:rgb(8.233643%,35.868835%,98.553467%);stop-opacity:1;"/>
<stop offset="0.140625" style="stop-color:rgb(8.535767%,35.897827%,98.571777%);stop-opacity:1;"/>
<stop offset="0.15625" style="stop-color:rgb(8.836365%,35.925293%,98.590088%);stop-opacity:1;"/>
<stop offset="0.171875" style="stop-color:rgb(9.138489%,35.954285%,98.609924%);stop-opacity:1;"/>
<stop offset="0.1875" style="stop-color:rgb(9.440613%,35.98175%,98.628235%);stop-opacity:1;"/>
<stop offset="0.203125" style="stop-color:rgb(9.741211%,36.010742%,98.646545%);stop-opacity:1;"/>
<stop offset="0.21875" style="stop-color:rgb(10.043335%,36.038208%,98.666382%);stop-opacity:1;"/>
<stop offset="0.234375" style="stop-color:rgb(10.345459%,36.0672%,98.684692%);stop-opacity:1;"/>
<stop offset="0.25" style="stop-color:rgb(10.647583%,36.094666%,98.703003%);stop-opacity:1;"/>
<stop offset="0.265625" style="stop-color:rgb(10.948181%,36.123657%,98.722839%);stop-opacity:1;"/>
<stop offset="0.28125" style="stop-color:rgb(11.250305%,36.151123%,98.74115%);stop-opacity:1;"/>
<stop offset="0.296875" style="stop-color:rgb(11.552429%,36.180115%,98.760986%);stop-opacity:1;"/>
<stop offset="0.3125" style="stop-color:rgb(11.853027%,36.207581%,98.779297%);stop-opacity:1;"/>
<stop offset="0.328125" style="stop-color:rgb(12.155151%,36.236572%,98.797607%);stop-opacity:1;"/>
<stop offset="0.34375" style="stop-color:rgb(12.457275%,36.265564%,98.817444%);stop-opacity:1;"/>
<stop offset="0.359375" style="stop-color:rgb(12.757874%,36.29303%,98.835754%);stop-opacity:1;"/>
<stop offset="0.375" style="stop-color:rgb(13.059998%,36.322021%,98.854065%);stop-opacity:1;"/>
<stop offset="0.390625" style="stop-color:rgb(13.362122%,36.349487%,98.873901%);stop-opacity:1;"/>
<stop offset="0.40625" style="stop-color:rgb(13.664246%,36.378479%,98.892212%);stop-opacity:1;"/>
<stop offset="0.421875" style="stop-color:rgb(13.964844%,36.405945%,98.910522%);stop-opacity:1;"/>
<stop offset="0.4375" style="stop-color:rgb(14.266968%,36.434937%,98.930359%);stop-opacity:1;"/>
<stop offset="0.453125" style="stop-color:rgb(14.569092%,36.462402%,98.948669%);stop-opacity:1;"/>
<stop offset="0.46875" style="stop-color:rgb(14.86969%,36.491394%,98.96698%);stop-opacity:1;"/>
<stop offset="0.484375" style="stop-color:rgb(15.171814%,36.51886%,98.986816%);stop-opacity:1;"/>
<stop offset="0.5" style="stop-color:rgb(15.473938%,36.547852%,99.005127%);stop-opacity:1;"/>
<stop offset="0.515625" style="stop-color:rgb(15.774536%,36.575317%,99.024963%);stop-opacity:1;"/>
<stop offset="0.53125" style="stop-color:rgb(16.07666%,36.604309%,99.043274%);stop-opacity:1;"/>
<stop offset="0.546875" style="stop-color:rgb(16.378784%,36.631775%,99.061584%);stop-opacity:1;"/>
<stop offset="0.5625" style="stop-color:rgb(16.680908%,36.660767%,99.081421%);stop-opacity:1;"/>
<stop offset="0.578125" style="stop-color:rgb(16.981506%,36.689758%,99.099731%);stop-opacity:1;"/>
<stop offset="0.59375" style="stop-color:rgb(17.28363%,36.717224%,99.118042%);stop-opacity:1;"/>
<stop offset="0.609375" style="stop-color:rgb(17.585754%,36.746216%,99.137878%);stop-opacity:1;"/>
<stop offset="0.625" style="stop-color:rgb(17.886353%,36.773682%,99.156189%);stop-opacity:1;"/>
<stop offset="0.640625" style="stop-color:rgb(18.188477%,36.802673%,99.1745%);stop-opacity:1;"/>
<stop offset="0.65625" style="stop-color:rgb(18.490601%,36.830139%,99.194336%);stop-opacity:1;"/>
<stop offset="0.671875" style="stop-color:rgb(18.791199%,36.859131%,99.212646%);stop-opacity:1;"/>
<stop offset="0.6875" style="stop-color:rgb(19.093323%,36.886597%,99.230957%);stop-opacity:1;"/>
<stop offset="0.703125" style="stop-color:rgb(19.395447%,36.915588%,99.250793%);stop-opacity:1;"/>
<stop offset="0.71875" style="stop-color:rgb(19.697571%,36.943054%,99.269104%);stop-opacity:1;"/>
<stop offset="0.734375" style="stop-color:rgb(19.998169%,36.972046%,99.287415%);stop-opacity:1;"/>
<stop offset="0.75" style="stop-color:rgb(20.300293%,36.999512%,99.307251%);stop-opacity:1;"/>
<stop offset="0.765625" style="stop-color:rgb(20.602417%,37.028503%,99.325562%);stop-opacity:1;"/>
<stop offset="0.78125" style="stop-color:rgb(20.903015%,37.055969%,99.345398%);stop-opacity:1;"/>
<stop offset="0.796875" style="stop-color:rgb(21.205139%,37.084961%,99.363708%);stop-opacity:1;"/>
<stop offset="0.8125" style="stop-color:rgb(21.507263%,37.113953%,99.382019%);stop-opacity:1;"/>
<stop offset="0.828125" style="stop-color:rgb(21.807861%,37.141418%,99.401855%);stop-opacity:1;"/>
<stop offset="0.84375" style="stop-color:rgb(22.109985%,37.17041%,99.420166%);stop-opacity:1;"/>
<stop offset="0.859375" style="stop-color:rgb(22.412109%,37.197876%,99.438477%);stop-opacity:1;"/>
<stop offset="0.875" style="stop-color:rgb(22.712708%,37.226868%,99.458313%);stop-opacity:1;"/>
<stop offset="0.890625" style="stop-color:rgb(23.014832%,37.254333%,99.476624%);stop-opacity:1;"/>
<stop offset="0.90625" style="stop-color:rgb(23.316956%,37.283325%,99.494934%);stop-opacity:1;"/>
<stop offset="0.921875" style="stop-color:rgb(23.61908%,37.310791%,99.514771%);stop-opacity:1;"/>
<stop offset="0.9375" style="stop-color:rgb(23.919678%,37.339783%,99.533081%);stop-opacity:1;"/>
<stop offset="0.953125" style="stop-color:rgb(24.221802%,37.367249%,99.551392%);stop-opacity:1;"/>
<stop offset="0.96875" style="stop-color:rgb(24.523926%,37.39624%,99.571228%);stop-opacity:1;"/>
<stop offset="0.984375" style="stop-color:rgb(24.824524%,37.423706%,99.589539%);stop-opacity:1;"/>
<stop offset="1" style="stop-color:rgb(25.126648%,37.452698%,99.609375%);stop-opacity:1;"/>
</linearGradient>
<clipPath id="clip3">
  <path d="M 0 0 L 29.800781 0 L 29.800781 29.800781 L 0 29.800781 Z M 0 0 "/>
</clipPath>
<clipPath id="clip4">
  <path d="M 14.902344 0.4375 C 6.925781 0.4375 0.4375 6.925781 0.4375 14.902344 C 0.4375 17.621094 1.195313 20.261719 2.628906 22.554688 C 2.058594 24.558594 1.023438 28.34375 1.015625 28.382813 C 0.988281 28.480469 0.988281 28.582031 1.015625 28.675781 C 1.039063 28.773438 1.09375 28.859375 1.164063 28.929688 C 1.308594 29.070313 1.523438 29.121094 1.714844 29.0625 L 7.445313 27.296875 C 9.699219 28.652344 12.273438 29.367188 14.902344 29.363281 C 22.875 29.363281 29.363281 22.875 29.363281 14.902344 C 29.363281 6.925781 22.875 0.4375 14.902344 0.4375 Z M 14.902344 28.25 C 12.398438 28.253906 9.941406 27.550781 7.820313 26.21875 C 7.75 26.179688 7.675781 26.152344 7.597656 26.140625 C 7.515625 26.128906 7.4375 26.136719 7.359375 26.160156 L 2.355469 27.703125 C 2.816406 26.007813 3.289063 24.3125 3.765625 22.621094 C 3.8125 22.46875 3.785156 22.300781 3.699219 22.167969 C 2.292969 20.003906 1.546875 17.480469 1.550781 14.902344 C 1.550781 7.539063 7.539063 1.550781 14.902344 1.550781 C 22.261719 1.550781 28.25 7.539063 28.25 14.902344 C 28.25 22.261719 22.261719 28.25 14.902344 28.25 Z M 14.902344 28.25 "/>
</clipPath>
<linearGradient id="linear1" gradientUnits="userSpaceOnUse" x1="-0.000734124" y1="0" x2="0.745883" y2="0" gradientTransform="matrix(38.827038,0.084757,0.084757,-38.827038,0.38204,39.26527)">
<stop offset="0" style="stop-color:rgb(6.274414%,35.68573%,98.431396%);stop-opacity:1;"/>
<stop offset="0.015625" style="stop-color:rgb(6.410217%,35.697937%,98.439026%);stop-opacity:1;"/>
<stop offset="0.03125" style="stop-color:rgb(6.694031%,35.725403%,98.457336%);stop-opacity:1;"/>
<stop offset="0.046875" style="stop-color:rgb(6.987%,35.752869%,98.475647%);stop-opacity:1;"/>
<stop offset="0.0625" style="stop-color:rgb(7.279968%,35.780334%,98.493958%);stop-opacity:1;"/>
<stop offset="0.078125" style="stop-color:rgb(7.572937%,35.8078%,98.512268%);stop-opacity:1;"/>
<stop offset="0.09375" style="stop-color:rgb(7.865906%,35.835266%,98.530579%);stop-opacity:1;"/>
<stop offset="0.109375" style="stop-color:rgb(8.158875%,35.862732%,98.548889%);stop-opacity:1;"/>
<stop offset="0.125" style="stop-color:rgb(8.451843%,35.890198%,98.5672%);stop-opacity:1;"/>
<stop offset="0.140625" style="stop-color:rgb(8.743286%,35.917664%,98.58551%);stop-opacity:1;"/>
<stop offset="0.15625" style="stop-color:rgb(9.036255%,35.945129%,98.603821%);stop-opacity:1;"/>
<stop offset="0.171875" style="stop-color:rgb(9.329224%,35.972595%,98.622131%);stop-opacity:1;"/>
<stop offset="0.1875" style="stop-color:rgb(9.622192%,36.000061%,98.640442%);stop-opacity:1;"/>
<stop offset="0.203125" style="stop-color:rgb(9.915161%,36.027527%,98.658752%);stop-opacity:1;"/>
<stop offset="0.21875" style="stop-color:rgb(10.20813%,36.054993%,98.677063%);stop-opacity:1;"/>
<stop offset="0.234375" style="stop-color:rgb(10.501099%,36.082458%,98.695374%);stop-opacity:1;"/>
<stop offset="0.25" style="stop-color:rgb(10.794067%,36.109924%,98.713684%);stop-opacity:1;"/>
<stop offset="0.265625" style="stop-color:rgb(11.08551%,36.13739%,98.731995%);stop-opacity:1;"/>
<stop offset="0.28125" style="stop-color:rgb(11.378479%,36.164856%,98.750305%);stop-opacity:1;"/>
<stop offset="0.296875" style="stop-color:rgb(11.671448%,36.192322%,98.768616%);stop-opacity:1;"/>
<stop offset="0.3125" style="stop-color:rgb(11.964417%,36.219788%,98.786926%);stop-opacity:1;"/>
<stop offset="0.328125" style="stop-color:rgb(12.257385%,36.247253%,98.805237%);stop-opacity:1;"/>
<stop offset="0.34375" style="stop-color:rgb(12.550354%,36.273193%,98.823547%);stop-opacity:1;"/>
<stop offset="0.359375" style="stop-color:rgb(12.843323%,36.300659%,98.841858%);stop-opacity:1;"/>
<stop offset="0.375" style="stop-color:rgb(13.136292%,36.328125%,98.860168%);stop-opacity:1;"/>
<stop offset="0.390625" style="stop-color:rgb(13.42926%,36.355591%,98.878479%);stop-opacity:1;"/>
<stop offset="0.40625" style="stop-color:rgb(13.720703%,36.383057%,98.89679%);stop-opacity:1;"/>
<stop offset="0.421875" style="stop-color:rgb(14.013672%,36.410522%,98.9151%);stop-opacity:1;"/>
<stop offset="0.4375" style="stop-color:rgb(14.306641%,36.437988%,98.933411%);stop-opacity:1;"/>
<stop offset="0.453125" style="stop-color:rgb(14.599609%,36.465454%,98.951721%);stop-opacity:1;"/>
<stop offset="0.46875" style="stop-color:rgb(14.892578%,36.49292%,98.970032%);stop-opacity:1;"/>
<stop offset="0.484375" style="stop-color:rgb(15.185547%,36.520386%,98.988342%);stop-opacity:1;"/>
<stop offset="0.5" style="stop-color:rgb(15.478516%,36.547852%,99.006653%);stop-opacity:1;"/>
<stop offset="0.515625" style="stop-color:rgb(15.771484%,36.575317%,99.024963%);stop-opacity:1;"/>
<stop offset="0.53125" style="stop-color:rgb(16.064453%,36.602783%,99.041748%);stop-opacity:1;"/>
<stop offset="0.546875" style="stop-color:rgb(16.355896%,36.630249%,99.060059%);stop-opacity:1;"/>
<stop offset="0.5625" style="stop-color:rgb(16.648865%,36.657715%,99.078369%);stop-opacity:1;"/>
<stop offset="0.578125" style="stop-color:rgb(16.941833%,36.685181%,99.09668%);stop-opacity:1;"/>
<stop offset="0.59375" style="stop-color:rgb(17.234802%,36.712646%,99.11499%);stop-opacity:1;"/>
<stop offset="0.609375" style="stop-color:rgb(17.527771%,36.740112%,99.133301%);stop-opacity:1;"/>
<stop offset="0.625" style="stop-color:rgb(17.82074%,36.767578%,99.151611%);stop-opacity:1;"/>
<stop offset="0.640625" style="stop-color:rgb(18.113708%,36.795044%,99.169922%);stop-opacity:1;"/>
<stop offset="0.65625" style="stop-color:rgb(18.406677%,36.82251%,99.188232%);stop-opacity:1;"/>
<stop offset="0.671875" style="stop-color:rgb(18.69812%,36.849976%,99.206543%);stop-opacity:1;"/>
<stop offset="0.6875" style="stop-color:rgb(18.991089%,36.877441%,99.224854%);stop-opacity:1;"/>
<stop offset="0.703125" style="stop-color:rgb(19.284058%,36.904907%,99.243164%);stop-opacity:1;"/>
<stop offset="0.71875" style="stop-color:rgb(19.577026%,36.932373%,99.261475%);stop-opacity:1;"/>
<stop offset="0.734375" style="stop-color:rgb(19.869995%,36.959839%,99.279785%);stop-opacity:1;"/>
<stop offset="0.75" style="stop-color:rgb(20.162964%,36.987305%,99.298096%);stop-opacity:1;"/>
<stop offset="0.765625" style="stop-color:rgb(20.455933%,37.014771%,99.316406%);stop-opacity:1;"/>
<stop offset="0.78125" style="stop-color:rgb(20.748901%,37.042236%,99.334717%);stop-opacity:1;"/>
<stop offset="0.796875" style="stop-color:rgb(21.04187%,37.069702%,99.353027%);stop-opacity:1;"/>
<stop offset="0.8125" style="stop-color:rgb(21.333313%,37.097168%,99.371338%);stop-opacity:1;"/>
<stop offset="0.828125" style="stop-color:rgb(21.626282%,37.124634%,99.389648%);stop-opacity:1;"/>
<stop offset="0.84375" style="stop-color:rgb(21.91925%,37.1521%,99.407959%);stop-opacity:1;"/>
<stop offset="0.859375" style="stop-color:rgb(22.212219%,37.179565%,99.42627%);stop-opacity:1;"/>
<stop offset="0.875" style="stop-color:rgb(22.505188%,37.207031%,99.44458%);stop-opacity:1;"/>
<stop offset="0.890625" style="stop-color:rgb(22.798157%,37.234497%,99.462891%);stop-opacity:1;"/>
<stop offset="0.90625" style="stop-color:rgb(23.091125%,37.261963%,99.481201%);stop-opacity:1;"/>
<stop offset="0.921875" style="stop-color:rgb(23.384094%,37.289429%,99.499512%);stop-opacity:1;"/>
<stop offset="0.9375" style="stop-color:rgb(23.675537%,37.316895%,99.517822%);stop-opacity:1;"/>
<stop offset="0.953125" style="stop-color:rgb(23.968506%,37.34436%,99.536133%);stop-opacity:1;"/>
<stop offset="0.96875" style="stop-color:rgb(24.261475%,37.371826%,99.554443%);stop-opacity:1;"/>
<stop offset="0.984375" style="stop-color:rgb(24.554443%,37.399292%,99.572754%);stop-opacity:1;"/>
<stop offset="1" style="stop-color:rgb(24.847412%,37.426758%,99.591064%);stop-opacity:1;"/>
</linearGradient>
<clipPath id="clip5">
  <path d="M 5 5 L 25 5 L 25 24 L 5 24 Z M 5 5 "/>
</clipPath>
<clipPath id="clip6">
  <path d="M 23.828125 17.957031 C 22.832031 17.394531 21.984375 16.832031 21.367188 16.417969 C 20.894531 16.105469 20.554688 15.878906 20.304688 15.75 C 19.605469 15.394531 19.078125 15.648438 18.875 15.855469 C 18.851563 15.878906 18.828125 15.90625 18.808594 15.9375 C 18.082031 17.046875 17.132813 18.105469 16.855469 18.164063 C 16.535156 18.113281 15.035156 17.242188 13.542969 15.980469 C 12.019531 14.6875 11.0625 13.449219 10.921875 12.609375 C 11.898438 11.585938 12.25 10.941406 12.25 10.207031 C 12.25 9.453125 10.519531 6.300781 10.207031 5.980469 C 9.890625 5.660156 9.183594 5.613281 8.101563 5.832031 C 8 5.851563 7.902344 5.90625 7.828125 5.980469 C 7.695313 6.113281 4.632813 9.292969 6.089844 13.148438 C 7.6875 17.378906 11.789063 22.292969 17.019531 23.09375 C 17.613281 23.183594 18.171875 23.226563 18.691406 23.226563 C 21.769531 23.226563 23.585938 21.652344 24.097656 18.527344 C 24.117188 18.414063 24.101563 18.300781 24.050781 18.199219 C 24.003906 18.09375 23.925781 18.011719 23.828125 17.957031 Z M 17.179688 22.007813 C 11.648438 21.164063 8.164063 15.585938 7.09375 12.753906 C 6.035156 9.945313 7.992188 7.441406 8.484375 6.875 C 8.882813 6.804688 9.304688 6.777344 9.480469 6.804688 C 9.847656 7.324219 11.117188 9.769531 11.171875 10.207031 C 11.171875 10.496094 11.082031 10.898438 9.984375 12.015625 C 9.933594 12.066406 9.894531 12.125 9.867188 12.191406 C 9.839844 12.257813 9.824219 12.332031 9.824219 12.402344 C 9.824219 15.273438 15.777344 19.257813 16.832031 19.257813 C 17.746094 19.257813 18.941406 17.691406 19.625 16.667969 C 19.695313 16.675781 19.761719 16.699219 19.824219 16.730469 C 20.015625 16.832031 20.351563 17.054688 20.777344 17.339844 C 21.339844 17.710938 22.085938 18.207031 22.964844 18.722656 C 22.566406 20.679688 21.449219 22.660156 17.179688 22.007813 Z M 17.179688 22.007813 "/>
</clipPath>
<linearGradient id="linear2" gradientUnits="userSpaceOnUse" x1="-0.043823" y1="0" x2="0.74633" y2="0" gradientTransform="matrix(24.708109,0.056633,0.056633,-24.708109,5.659126,30.40513)">
<stop offset="0" style="stop-color:rgb(6.274414%,35.68573%,98.431396%);stop-opacity:1;"/>
<stop offset="0.0625" style="stop-color:rgb(6.343079%,35.691833%,98.434448%);stop-opacity:1;"/>
<stop offset="0.078125" style="stop-color:rgb(6.567383%,35.71167%,98.448181%);stop-opacity:1;"/>
<stop offset="0.09375" style="stop-color:rgb(6.877136%,35.742188%,98.468018%);stop-opacity:1;"/>
<stop offset="0.109375" style="stop-color:rgb(7.18689%,35.771179%,98.487854%);stop-opacity:1;"/>
<stop offset="0.125" style="stop-color:rgb(7.496643%,35.800171%,98.506165%);stop-opacity:1;"/>
<stop offset="0.140625" style="stop-color:rgb(7.806396%,35.829163%,98.526001%);stop-opacity:1;"/>
<stop offset="0.15625" style="stop-color:rgb(8.11615%,35.858154%,98.545837%);stop-opacity:1;"/>
<stop offset="0.171875" style="stop-color:rgb(8.427429%,35.887146%,98.564148%);stop-opacity:1;"/>
<stop offset="0.1875" style="stop-color:rgb(8.737183%,35.916138%,98.583984%);stop-opacity:1;"/>
<stop offset="0.203125" style="stop-color:rgb(9.046936%,35.945129%,98.603821%);stop-opacity:1;"/>
<stop offset="0.21875" style="stop-color:rgb(9.356689%,35.974121%,98.622131%);stop-opacity:1;"/>
<stop offset="0.234375" style="stop-color:rgb(9.666443%,36.003113%,98.641968%);stop-opacity:1;"/>
<stop offset="0.25" style="stop-color:rgb(9.976196%,36.032104%,98.661804%);stop-opacity:1;"/>
<stop offset="0.265625" style="stop-color:rgb(10.28595%,36.061096%,98.681641%);stop-opacity:1;"/>
<stop offset="0.28125" style="stop-color:rgb(10.595703%,36.090088%,98.699951%);stop-opacity:1;"/>
<stop offset="0.296875" style="stop-color:rgb(10.905457%,36.11908%,98.719788%);stop-opacity:1;"/>
<stop offset="0.3125" style="stop-color:rgb(11.21521%,36.148071%,98.739624%);stop-opacity:1;"/>
<stop offset="0.328125" style="stop-color:rgb(11.524963%,36.177063%,98.757935%);stop-opacity:1;"/>
<stop offset="0.34375" style="stop-color:rgb(11.834717%,36.206055%,98.777771%);stop-opacity:1;"/>
<stop offset="0.359375" style="stop-color:rgb(12.14447%,36.235046%,98.797607%);stop-opacity:1;"/>
<stop offset="0.375" style="stop-color:rgb(12.454224%,36.264038%,98.815918%);stop-opacity:1;"/>
<stop offset="0.390625" style="stop-color:rgb(12.765503%,36.29303%,98.835754%);stop-opacity:1;"/>
<stop offset="0.40625" style="stop-color:rgb(13.075256%,36.322021%,98.855591%);stop-opacity:1;"/>
<stop offset="0.421875" style="stop-color:rgb(13.38501%,36.351013%,98.873901%);stop-opacity:1;"/>
<stop offset="0.4375" style="stop-color:rgb(13.694763%,36.380005%,98.893738%);stop-opacity:1;"/>
<stop offset="0.453125" style="stop-color:rgb(14.004517%,36.408997%,98.913574%);stop-opacity:1;"/>
<stop offset="0.46875" style="stop-color:rgb(14.31427%,36.437988%,98.933411%);stop-opacity:1;"/>
<stop offset="0.484375" style="stop-color:rgb(14.624023%,36.46698%,98.951721%);stop-opacity:1;"/>
<stop offset="0.5" style="stop-color:rgb(14.933777%,36.497498%,98.971558%);stop-opacity:1;"/>
<stop offset="0.515625" style="stop-color:rgb(15.24353%,36.526489%,98.991394%);stop-opacity:1;"/>
<stop offset="0.53125" style="stop-color:rgb(15.553284%,36.555481%,99.009705%);stop-opacity:1;"/>
<stop offset="0.546875" style="stop-color:rgb(15.863037%,36.584473%,99.029541%);stop-opacity:1;"/>
<stop offset="0.5625" style="stop-color:rgb(16.172791%,36.613464%,99.049377%);stop-opacity:1;"/>
<stop offset="0.578125" style="stop-color:rgb(16.482544%,36.642456%,99.067688%);stop-opacity:1;"/>
<stop offset="0.59375" style="stop-color:rgb(16.792297%,36.671448%,99.087524%);stop-opacity:1;"/>
<stop offset="0.609375" style="stop-color:rgb(17.103577%,36.700439%,99.107361%);stop-opacity:1;"/>
<stop offset="0.625" style="stop-color:rgb(17.41333%,36.729431%,99.125671%);stop-opacity:1;"/>
<stop offset="0.640625" style="stop-color:rgb(17.723083%,36.758423%,99.145508%);stop-opacity:1;"/>
<stop offset="0.65625" style="stop-color:rgb(18.032837%,36.787415%,99.165344%);stop-opacity:1;"/>
<stop offset="0.671875" style="stop-color:rgb(18.34259%,36.816406%,99.185181%);stop-opacity:1;"/>
<stop offset="0.6875" style="stop-color:rgb(18.652344%,36.845398%,99.203491%);stop-opacity:1;"/>
<stop offset="0.703125" style="stop-color:rgb(18.962097%,36.87439%,99.223328%);stop-opacity:1;"/>
<stop offset="0.71875" style="stop-color:rgb(19.271851%,36.903381%,99.243164%);stop-opacity:1;"/>
<stop offset="0.734375" style="stop-color:rgb(19.581604%,36.932373%,99.261475%);stop-opacity:1;"/>
<stop offset="0.75" style="stop-color:rgb(19.891357%,36.961365%,99.281311%);stop-opacity:1;"/>
<stop offset="0.765625" style="stop-color:rgb(20.201111%,36.990356%,99.301147%);stop-opacity:1;"/>
<stop offset="0.78125" style="stop-color:rgb(20.510864%,37.019348%,99.319458%);stop-opacity:1;"/>
<stop offset="0.796875" style="stop-color:rgb(20.820618%,37.04834%,99.339294%);stop-opacity:1;"/>
<stop offset="0.8125" style="stop-color:rgb(21.130371%,37.077332%,99.359131%);stop-opacity:1;"/>
<stop offset="0.828125" style="stop-color:rgb(21.44165%,37.106323%,99.377441%);stop-opacity:1;"/>
<stop offset="0.84375" style="stop-color:rgb(21.751404%,37.135315%,99.397278%);stop-opacity:1;"/>
<stop offset="0.859375" style="stop-color:rgb(22.061157%,37.164307%,99.417114%);stop-opacity:1;"/>
<stop offset="0.875" style="stop-color:rgb(22.370911%,37.193298%,99.436951%);stop-opacity:1;"/>
<stop offset="0.890625" style="stop-color:rgb(22.680664%,37.22229%,99.455261%);stop-opacity:1;"/>
<stop offset="0.90625" style="stop-color:rgb(22.990417%,37.251282%,99.475098%);stop-opacity:1;"/>
<stop offset="0.921875" style="stop-color:rgb(23.300171%,37.281799%,99.494934%);stop-opacity:1;"/>
<stop offset="0.9375" style="stop-color:rgb(23.609924%,37.310791%,99.513245%);stop-opacity:1;"/>
<stop offset="0.953125" style="stop-color:rgb(23.919678%,37.339783%,99.533081%);stop-opacity:1;"/>
<stop offset="0.96875" style="stop-color:rgb(24.229431%,37.368774%,99.552917%);stop-opacity:1;"/>
<stop offset="0.984375" style="stop-color:rgb(24.539185%,37.397766%,99.571228%);stop-opacity:1;"/>
<stop offset="1" style="stop-color:rgb(24.848938%,37.426758%,99.591064%);stop-opacity:1;"/>
</linearGradient>
</defs>
<g id="surface1">
<g clip-path="url(#clip1)" clip-rule="nonzero">
<g clip-path="url(#clip2)" clip-rule="nonzero">
<path style=" stroke:none;fill-rule:nonzero;fill:url(#linear0);" d="M -0.0664063 29.800781 L 0 -0.0664063 L 29.867188 0 L 29.800781 29.867188 Z M -0.0664063 29.800781 "/>
</g>
</g>
<g clip-path="url(#clip3)" clip-rule="nonzero">
<g clip-path="url(#clip4)" clip-rule="nonzero">
<path style=" stroke:none;fill-rule:nonzero;fill:url(#linear1);" d="M 0.375 29.367188 L 0.4375 0.375 L 29.425781 0.4375 L 29.363281 29.429688 Z M 0.375 29.367188 "/>
</g>
</g>
<g clip-path="url(#clip5)" clip-rule="nonzero">
<g clip-path="url(#clip6)" clip-rule="nonzero">
<path style=" stroke:none;fill-rule:nonzero;fill:url(#linear2);" d="M 4.59375 23.226563 L 4.632813 5.566406 L 24.15625 5.613281 L 24.117188 23.273438 Z M 4.59375 23.226563 "/>
</g>
</g>
</g>
</svg>
